<svg width="1200" height="627" viewBox="0 0 1200 627" fill="none" xmlns="http://www.w3.org/2000/svg">
<rect width="1200" height="627" fill="#F7FAF7"/>
<mask id="mask0" mask-type="alpha" maskUnits="userSpaceOnUse" x="30" y="30" width="1140" height="567">
<rect x="30" y="30" width="1140" height="567" rx="10.322" fill="#BDA1E7"/>
</mask>
<g mask="url(#mask0)">
<rect x="-23" y="16.6445" width="1223" height="614.351" rx="8" fill="#14A800"/>
</g>
<path d="M478.478 271.619C455.505 271.619 442.644 286.59 438.962 302.004C434.79 294.15 431.697 283.645 429.292 273.877H397.532V313.393C397.532 327.727 391.003 338.33 378.24 338.33C365.477 338.33 358.163 327.727 358.163 313.393L358.31 273.877H340V313.393C340 324.928 343.731 335.384 350.554 342.846C357.574 350.553 367.146 354.578 378.24 354.578C400.33 354.578 415.743 337.642 415.743 313.393V286.836C418.05 295.574 423.548 312.362 434.053 327.088L424.236 383H442.84L449.32 343.386C451.431 345.153 453.689 346.724 456.094 348.147C462.328 352.074 469.446 354.283 476.809 354.529C476.809 354.529 477.938 354.578 478.527 354.578C501.304 354.578 519.418 336.955 519.418 313.147C519.418 289.339 501.255 271.619 478.478 271.619ZM478.478 338.281C464.39 338.281 455.063 327.383 452.461 323.161C455.799 296.457 465.568 288.014 478.478 288.014C491.241 288.014 501.157 298.224 501.157 313.147C501.157 328.07 491.241 338.281 478.478 338.281Z" fill="white"/>
<path d="M741.542 282.32V273.877H723.576V352.074H741.788V321.443C741.788 302.593 743.506 289.045 768.787 290.812V272.944C757.005 272.06 747.826 274.515 741.542 282.32Z" fill="white"/>
<path d="M615.091 273.877L601.886 328.561L587.798 273.877H564.628L550.491 328.561L537.335 273.877H518.878L539.102 352.123H560.996L576.213 296.555L591.283 352.123H613.177L634.579 273.877H615.091Z" fill="white"/>
<path d="M674.685 271.619C651.76 271.619 633.794 289.389 633.794 313.147C633.794 336.906 651.76 354.529 674.685 354.529C697.462 354.529 715.575 336.906 715.575 313.147C715.575 289.389 697.511 271.619 674.685 271.619ZM674.685 338.33C661.725 338.33 652.006 328.119 652.006 313.147C652.006 298.175 661.774 288.014 674.685 288.014C687.448 288.014 697.363 298.224 697.363 313.147C697.363 328.07 687.448 338.33 674.685 338.33Z" fill="white"/>
<path d="M794.902 313.638H799.124L824.551 352.123H845.119L815.863 309.466C830.049 303.919 839.572 289.438 839.572 273.877H821.41C821.41 290.763 808.107 297.144 794.902 297.144V243H776.641V352.123H794.853L794.902 313.638Z" fill="white"/>
<path d="M844.727 243V244.571H846.936V250.118H848.654V244.571H850.863V243H844.727ZM857.391 243L855.821 247.86H855.771L854.25 243H851.844V250.118H853.464V245.013H853.513L855.035 250.118H856.508L858.079 245.013H858.128V250.118H859.797V243H857.391Z" fill="white"/>
</svg>
